Coordinates
version=1
nRows=26
nColumns=24
inDegrees=yes

Units are S.I. units (second, meters, Newtons, ...)
Angles are in degrees.

endheader
time	pelvis_tilt	pelvis_list	pelvis_rotation	pelvis_tx	pelvis_ty	pelvis_tz	hip_flexion_r	hip_adduction_r	hip_rotation_r	knee_angle_r	ankle_angle_r	subtalar_angle_r	mtp_angle_r	hip_flexion_l	hip_adduction_l	hip_rotation_l	knee_angle_l	ankle_angle_l	subtalar_angle_l	mtp_angle_l	lumbar_extension	lumbar_bending	lumbar_rotation
      1.30650000	     -1.02721950	      7.08945658	     -0.10476768	      0.20641601	      0.99378073	      0.30207526	     19.32090451	     -6.98311301	      1.19583533	    -69.33372770	     -0.66555217	     -9.38174684	      5.09239158	      9.71664479	     12.47678188	      1.88229594	    -11.32125144	      0.11398403	    -15.53996999	     -1.43670208	      0.90490134	     -5.19980009	      3.11827117
      1.31066667	     -0.95158231	      7.01273929	     -0.11128733	      0.21139332	      0.99448621	      0.30198869	     19.81148889	     -6.85211184	      1.35385691	    -69.07890574	      0.06026644	     -9.61278604	      5.00211965	      9.16075954	     12.41002360	      2.02586865	    -11.05180676	      0.25866329	    -15.53858464	     -1.47735723	      0.80218189	     -5.10493508	      3.06533716
      1.31483333	     -0.87444399	      6.92245869	     -0.10847019	      0.21635662	      0.99516432	      0.30189398	     20.28157953	     -6.70998935	      1.49442729	    -68.76557932	      0.75655617	     -9.82966251	      4.91525964	      8.60417893	     12.32924800	      2.17914956	    -10.78478670	      0.40628509	    -15.54478256	     -1.51683337	      0.69687035	     -4.99471628	      3.00776359
      1.31900000	     -0.75525602	      6.84724980	     -0.10624154	      0.22134560	      0.99589077	      0.30180612	     20.68337349	     -6.58980046	      1.62420376	    -68.38892396	      1.40101168	    -10.10106921	      4.71172753	      7.97775222	     12.26564363	      2.36232603	    -10.46946305	      0.52579868	    -15.59327659	     -1.60947121	      0.55036448	     -4.91811710	      2.91072865
      1.32316667	     -0.68818855	      6.75212155	     -0.09355015	      0.22627080	      0.99650387	      0.30170091	     21.13475537	     -6.44742741	      1.74564776	    -67.97665611	      2.11688107	    -10.15482427	      1.12037022	      7.43356926	     12.18174196	      2.55480058	    -10.20443262	      0.68028206	    -15.63439060	     -3.24114729	      0.45193966	     -4.79387943	      2.86406999
      1.32733333	     -0.65369694	      6.65627984	     -0.07448023	      0.23118492	      0.99701986	      0.30160747	     21.60776815	     -6.30406863	      1.86431030	    -67.51329031	      2.74916133	    -10.33082344	      1.12319771	      6.94392502	     12.08986897	      2.69507550	     -9.97378682	      0.85502944	    -15.61365794	     -3.23641157	      0.39238994	     -4.67772938	      2.80764858
      1.33150000	     -0.57906539	      6.55756791	     -0.05373708	      0.23609743	      0.99757954	      0.30150867	     22.01601859	     -6.16675851	      1.96312374	    -66.99011180	      3.34683143	    -10.50126975	      1.12173009	      6.40295519	     11.99416870	      2.83777589	     -9.72481333	      1.02125546	    -15.59854779	     -3.23405064	      0.28982078	     -4.54871172	      2.74414576
      1.33566667	     -0.50012537	      6.46410301	     -0.02887040	      0.24098828	      0.99809880	      0.30141937	     22.40430913	     -6.03439267	      2.06086758	    -66.42081199	      3.91624703	    -10.66793581	      1.11436391	      5.85986717	     11.90325488	      2.99959834	     -9.47864527	      1.18231106	    -15.59141829	     -3.23396357	      0.16895761	     -4.44737951	      2.66758827
      1.33983333	     -0.44426078	      6.38067849	      0.00055468	      0.24586621	      0.99854180	      0.30131038	     22.80872350	     -5.92214570	      2.14732708	    -65.81431787	      4.43733433	    -10.80315886	      1.10479493	      5.34333673	     11.82247582	      3.15327686	     -9.23109403	      1.34626628	    -15.58462683	     -3.23528121	      0.07342022	     -4.33580430	      2.59501278
      1.34400000	     -0.35294852	      6.30209599	      0.03073027	      0.25073729	      0.99901664	      0.30122151	     23.15062222	     -5.81197982	      2.23499742	    -65.14799102	      4.91948964	    -10.96711785	      1.06582649	      4.78018615	     11.74513146	      3.33546693	     -8.96500110	      1.48428284	    -15.61228331	     -3.24682075	     -0.06209170	     -4.26018588	      2.46637350
      1.34816667	     -0.31991712	      6.21502164	      0.07726963	      0.25557634	      0.99936008	      0.30111195	     23.54440077	     -5.69920430	      2.30411510	    -64.44643249	      5.40417007	    -11.05786518	      1.04637547	      4.30850603	     11.65691754	      3.48604580	     -8.75394586	      1.66044707	    -15.60161768	     -3.25169025	     -0.12715131	     -4.15794412	      2.40804183
      1.35233333	     -0.25043694	      6.12512694	      0.12174343	      0.26042294	      0.99973262	      0.30101158	     23.87671232	     -5.58693108	      2.36172747	    -63.69040141	      5.84521021	    -11.16672877	      1.01951764	      3.78761816	     11.56224085	      3.63842701	     -8.52226730	      1.83487108	    -15.57863948	     -3.25879063	     -0.23894507	     -4.05420058	      2.32540556
      1.35650000	     -0.20333529	      6.05659570	      0.16712737	      0.26524578	      1.00001117	      0.30089788	     24.22745648	     -5.50208752	      2.42084356	    -62.90920624	      6.24677115	    -11.25023931	      0.99280759	      3.29871948	     11.49085586	      3.78796610	     -8.30172799	      2.01231529	    -15.55710851	     -3.26544329	     -0.32996012	     -3.96933121	      2.24601114
      1.36066667	     -0.12177627	      6.00009769	      0.20919462	      0.27007700	      1.00031137	      0.30079144	     24.52214461	     -5.43478073	      2.47231575	    -62.08155051	      6.59967469	    -11.34368304	      0.93571582	      2.75743798	     11.42965210	      3.94417929	     -8.04773694	      2.17521954	    -15.54510326	     -3.28212713	     -0.46467966	     -3.90406577	      2.12026475
      1.36483333	     -0.09051755	      5.92611707	      0.27376968	      0.27487590	      1.00052843	      0.30067510	     24.84769358	     -5.35056361	      2.50655227	    -61.20164006	      6.94376827	    -11.40431014	      0.90204433	      2.29753971	     11.34792649	      4.09838294	     -7.84997524	      2.35365259	    -15.51694157	     -3.29001009	     -0.53468692	     -3.81556466	      2.05491302
      1.36900000	     -0.00474461	      5.86824992	      0.32198460	      0.27969417	      1.00077500	      0.30057092	     25.10002512	     -5.28729946	      2.53832926	    -60.28565566	      7.22762778	    -11.48584428	      0.83437602	      1.75579953	     11.28061144	      4.24592584	     -7.60248954	      2.52402745	    -15.48533809	     -3.30764157	     -0.67689394	     -3.74920755	      1.93383728
      1.37316667	     -0.00080549	      5.80291526	      0.39482896	      0.28447211	      1.00086445	      0.30044764	     25.42645870	     -5.22063894	      2.55263332	    -59.33643855	      7.50530868	    -11.53217326	      0.79781315	      1.33150738	     11.20516435	      4.39710497	     -7.41387048	      2.70945262	    -15.44945152	     -3.31452769	     -0.72490905	     -3.67151780	      1.87418245
      1.37733333	      0.03998060	      5.76302740	      0.45983982	      0.28925239	      1.00097238	      0.30032394	     25.69766290	     -5.18457288	      2.56993821	    -58.35049894	      7.74410166	    -11.59153933	      0.75082630	      0.85732785	     11.15526647	      4.54596643	     -7.20276183	      2.88851775	    -15.40696198	     -3.32368992	     -0.80992397	     -3.61916983	      1.78260706
      1.38150000	      0.07316391	      5.70932547	      0.53016117	      0.29402718	      1.00104783	      0.30020653	     25.95534114	     -5.13623671	      2.56877405	    -57.31939909	      7.94352975	    -11.64183506	      0.70543625	      0.39306427	     11.08809355	      4.69204065	     -6.99424329	      3.06677990	    -15.36228157	     -3.33137916	     -0.89520271	     -3.55804791	      1.69787962
      1.38566667	      0.11351500	      5.67104415	      0.59790266	      0.29880491	      1.00109114	      0.30009449	     26.19176514	     -5.10861838	      2.56047358	    -56.25942689	      8.10817648	    -11.69469677	      0.65024605	     -0.08365910	     11.03467670	      4.83073070	     -6.77538099	      3.24362645	    -15.31468351	     -3.34064404	     -0.99191211	     -3.51696772	      1.59877334
      1.38983333	      0.12378368	      5.64659775	      0.66686576	      0.30356126	      1.00103857	      0.29997475	     26.45060280	     -5.09736591	      2.55295975	    -55.17422002	      8.24532386	    -11.74570389	      0.58631187	     -0.52154373	     10.99676304	      4.97181932	     -6.56670455	      3.41772921	    -15.26955107	     -3.35106674	     -1.05029801	     -3.48990892	      1.50130339
      1.39400000	      0.13769852	      5.62457810	      0.74498526	      0.30831364	      1.00098218	      0.29984589	     26.68066502	     -5.09343008	      2.53091734	    -54.04459313	      8.36236153	    -11.78581430	      0.53006070	     -0.95803073	     10.96053350	      5.11859061	     -6.37157616	      3.58897099	    -15.21553419	     -3.35887153	     -1.10401493	     -3.44754091	      1.42054232
      1.39816667	      0.15617457	      5.59694725	      0.81795964	      0.31306943	      1.00089751	      0.29973504	     26.88954019	     -5.08592507	      2.49239489	    -52.88321992	      8.43867891	    -11.83191250	      0.45901821	     -1.40829710	     10.91389375	      5.25020782	     -6.15439385	      3.76032297	    -15.16477758	     -3.36917773	     -1.18250724	     -3.42660319	      1.32115898
      1.40233333	      0.15016601	      5.58742354	      0.89347599	      0.31781135	      1.00073249	      0.29961264	     27.11372477	     -5.10077063	      2.45179255	    -51.70067727	      8.50108810	    -11.85874891	      0.39326945	     -1.82434356	     10.88831280	      5.38307443	     -5.95337949	      3.92897516	    -15.11111306	     -3.37780243	     -1.21938933	     -3.40859372	      1.24089259
      1.40650000	      0.13681654	      5.57577805	      0.96813493	      0.32255677	      1.00052437	      0.29949779	     27.32635257	     -5.11373444	      2.40263278	    -50.48530918	      8.53892222	    -11.88428293	      0.32894052	     -2.23203485	     10.85840500	      5.50936194	     -5.75361764	      4.10146992	    -15.05293260	     -3.38509978	     -1.24814503	     -3.38617328	      1.16264350
      1.41066667	      0.12626297	      5.55928948	      1.04021049	      0.32730869	      1.00030131	      0.29939261	     27.51617907	     -5.12457860	      2.33691810	    -49.23515943	      8.54641359	    -11.90261359	      0.25701589	     -2.64730297	     10.82110335	      5.62591380	     -5.54369245	      4.27033479	    -14.99069677	     -3.39334824	     -1.29377317	     -3.37165958	      1.07861631
